<?xml version="1.0" encoding="UTF-8" standalone="no"?><svg xmlns="http://www.w3.org/2000/svg" xmlns:xlink="http://www.w3.org/1999/xlink" contentScriptType="application/ecmascript" contentStyleType="text/css" height="706px" preserveAspectRatio="none" style="width:875px;height:706px;background:#FFFFFF;" version="1.1" viewBox="0 0 875 706" width="875px" zoomAndPan="magnify"><defs><filter height="300%" id="f13zu8bvkvtonf" width="300%" x="-1" y="-1"><feGaussianBlur result="blurOut" stdDeviation="2.0"/><feColorMatrix in="blurOut" result="blurOut2" type="matrix" values="0 0 0 0 0 0 0 0 0 0 0 0 0 0 0 0 0 0 .4 0"/><feOffset dx="4.0" dy="4.0" in="blurOut2" result="blurOut3"/><feBlend in="SourceGraphic" in2="blurOut3" mode="normal"/></filter></defs><g><!--MD5=[68b0d891ae335f55d21b99c01fdb315a]
class contrib--><rect codeLine="6" fill="#FEFECE" filter="url(#f13zu8bvkvtonf)" height="171.4059" id="contrib" style="stroke:#A80036;stroke-width:1.5;" width="168" x="474" y="7"/><ellipse cx="516.45" cy="23" fill="#A9DCDF" rx="11" ry="11" style="stroke:#A80036;stroke-width:1.0;"/><path d="M516.575,18.3125 L515.4188,23.6406 L517.7313,23.6406 L516.575,18.3125 Z M515.075,15.75 L518.075,15.75 L521.4188,28.75 L518.9656,28.75 L518.2,25.75 L514.9188,25.75 L514.1688,28.75 L511.7313,28.75 L515.075,15.75 Z " fill="#000000"/><text fill="#000000" font-family="sans-serif" font-size="12" font-style="italic" lengthAdjust="spacing" textLength="75" x="536.55" y="27.1543">Contribuinte</text><line style="stroke:#A80036;stroke-width:1.5;" x1="475" x2="641" y1="39" y2="39"/><text fill="#000000" font-family="sans-serif" font-size="11" lengthAdjust="spacing" textLength="73" x="480" y="53.225">-String nome</text><text fill="#000000" font-family="sans-serif" font-size="11" lengthAdjust="spacing" textLength="85" x="480" y="66.0478">-String morada</text><line style="stroke:#A80036;stroke-width:1.5;" x1="475" x2="641" y1="72.6458" y2="72.6458"/><text fill="#000000" font-family="sans-serif" font-size="11" lengthAdjust="spacing" textLength="156" x="480" y="86.8707">+abstract calcularImposto()</text><text fill="#000000" font-family="sans-serif" font-size="11" lengthAdjust="spacing" textLength="68" x="480" y="116.5165">+getNome()</text><text fill="#000000" font-family="sans-serif" font-size="11" lengthAdjust="spacing" textLength="78" x="480" y="129.3393">+getMorada()</text><line style="stroke:#A80036;stroke-width:1.0;stroke-dasharray:1.0,2.0;" x1="475" x2="537" y1="99.8801" y2="99.8801"/><text fill="#000000" font-family="sans-serif" font-size="11" lengthAdjust="spacing" textLength="42" x="537" y="103.1936">Getters</text><line style="stroke:#A80036;stroke-width:1.0;stroke-dasharray:1.0,2.0;" x1="579" x2="641" y1="99.8801" y2="99.8801"/><text fill="#000000" font-family="sans-serif" font-size="11" lengthAdjust="spacing" textLength="67" x="480" y="158.9851">+setNome()</text><text fill="#000000" font-family="sans-serif" font-size="11" lengthAdjust="spacing" textLength="77" x="480" y="171.808">+setMorada()</text><line style="stroke:#A80036;stroke-width:1.0;stroke-dasharray:1.0,2.0;" x1="475" x2="538" y1="142.3487" y2="142.3487"/><text fill="#000000" font-family="sans-serif" font-size="11" lengthAdjust="spacing" textLength="40" x="538" y="145.6622">Setters</text><line style="stroke:#A80036;stroke-width:1.0;stroke-dasharray:1.0,2.0;" x1="578" x2="641" y1="142.3487" y2="142.3487"/><!--MD5=[e5c80782818657a136304aa76d604da7]
class contribRend--><rect codeLine="19" fill="#FEFECE" filter="url(#f13zu8bvkvtonf)" height="197.0516" id="contribRend" style="stroke:#A80036;stroke-width:1.5;" width="249" x="298.5" y="238"/><ellipse cx="329.7" cy="254" fill="#A9DCDF" rx="11" ry="11" style="stroke:#A80036;stroke-width:1.0;"/><path d="M329.825,249.3125 L328.6688,254.6406 L330.9813,254.6406 L329.825,249.3125 Z M328.325,246.75 L331.325,246.75 L334.6688,259.75 L332.2156,259.75 L331.45,256.75 L328.1688,256.75 L327.4188,259.75 L324.9813,259.75 L328.325,246.75 Z " fill="#000000"/><text fill="#000000" font-family="sans-serif" font-size="12" font-style="italic" lengthAdjust="spacing" textLength="181" x="347.3" y="258.1543">ContribuinteComRendimentos</text><line style="stroke:#A80036;stroke-width:1.5;" x1="299.5" x2="546.5" y1="270" y2="270"/><text fill="#000000" font-family="sans-serif" font-size="11" lengthAdjust="spacing" textLength="168" x="304.5" y="284.225">-Double rendimentosTrabalho</text><text fill="#000000" font-family="sans-serif" font-size="11" lengthAdjust="spacing" textLength="157" x="304.5" y="297.0478">-Double outrosRendimentos</text><line style="stroke:#A80036;stroke-width:1.5;" x1="299.5" x2="546.5" y1="303.6458" y2="303.6458"/><text fill="#000000" font-family="sans-serif" font-size="11" lengthAdjust="spacing" textLength="106" x="304.5" y="317.8707">+calcularImposto()</text><text fill="#000000" font-family="sans-serif" font-size="11" lengthAdjust="spacing" textLength="159" x="304.5" y="347.5165">+getRendimentosTrabalho()</text><text fill="#000000" font-family="sans-serif" font-size="11" lengthAdjust="spacing" textLength="147" x="304.5" y="360.3393">+getOutrosRendimentos()</text><text fill="#000000" font-family="sans-serif" font-size="11" lengthAdjust="spacing" textLength="237" x="304.5" y="373.1622">+abstract getTaxaRendimentosTrabalho()</text><text fill="#000000" font-family="sans-serif" font-size="11" lengthAdjust="spacing" textLength="225" x="304.5" y="385.9851">+abstract getTaxaOutrosRendimentos()</text><line style="stroke:#A80036;stroke-width:1.0;stroke-dasharray:1.0,2.0;" x1="299.5" x2="402" y1="330.8801" y2="330.8801"/><text fill="#000000" font-family="sans-serif" font-size="11" lengthAdjust="spacing" textLength="42" x="402" y="334.1936">Getters</text><line style="stroke:#A80036;stroke-width:1.0;stroke-dasharray:1.0,2.0;" x1="444" x2="546.5" y1="330.8801" y2="330.8801"/><text fill="#000000" font-family="sans-serif" font-size="11" lengthAdjust="spacing" textLength="158" x="304.5" y="415.6308">+setRendimentosTrabalho()</text><text fill="#000000" font-family="sans-serif" font-size="11" lengthAdjust="spacing" textLength="146" x="304.5" y="428.4537">+setOutrosRendimentos()</text><line style="stroke:#A80036;stroke-width:1.0;stroke-dasharray:1.0,2.0;" x1="299.5" x2="403" y1="398.9944" y2="398.9944"/><text fill="#000000" font-family="sans-serif" font-size="11" lengthAdjust="spacing" textLength="40" x="403" y="402.308">Setters</text><line style="stroke:#A80036;stroke-width:1.0;stroke-dasharray:1.0,2.0;" x1="443" x2="546.5" y1="398.9944" y2="398.9944"/><!--MD5=[769a7c5c14258372b57ddbb3f1720ceb]
class des--><rect codeLine="34" fill="#FEFECE" filter="url(#f13zu8bvkvtonf)" height="158.583" id="des" style="stroke:#A80036;stroke-width:1.5;" width="220" x="583" y="257"/><ellipse cx="643.25" cy="273" fill="#ADD1B2" rx="11" ry="11" style="stroke:#A80036;stroke-width:1.0;"/><path d="M645.7344,278.875 Q645.1563,279.1875 644.5156,279.3438 Q643.875,279.5 643.1719,279.5 Q640.6563,279.5 639.3281,277.8281 Q638.0156,276.1563 638.0156,273 Q638.0156,269.8438 639.3281,268.1719 Q640.6563,266.5 643.1719,266.5 Q643.875,266.5 644.5156,266.6563 Q645.1719,266.8125 645.7344,267.125 L645.7344,269.9219 Q645.0938,269.3438 644.5,269.0781 Q643.9063,268.8125 643.2813,268.8125 Q641.9375,268.8125 641.25,269.875 Q640.5625,270.9219 640.5625,273 Q640.5625,275.0781 641.25,276.1406 Q641.9375,277.1875 643.2813,277.1875 Q643.9063,277.1875 644.5,276.9219 Q645.0938,276.6563 645.7344,276.0781 L645.7344,278.875 Z " fill="#000000"/><text fill="#000000" font-family="sans-serif" font-size="12" lengthAdjust="spacing" textLength="91" x="663.75" y="277.1543">Desempregado</text><line style="stroke:#A80036;stroke-width:1.5;" x1="584" x2="802" y1="289" y2="289"/><text fill="#000000" font-family="sans-serif" font-size="11" lengthAdjust="spacing" textLength="157" x="589" y="303.225">-Double outrosRendimentos</text><text fill="#000000" font-family="sans-serif" font-size="11" lengthAdjust="spacing" textLength="136" x="589" y="316.0478">-Integer mesesParagem</text><line style="stroke:#A80036;stroke-width:1.5;" x1="584" x2="802" y1="322.6458" y2="322.6458"/><text fill="#000000" font-family="sans-serif" font-size="11" lengthAdjust="spacing" textLength="106" x="589" y="336.8707">+calcularImposto()</text><text fill="#000000" font-family="sans-serif" font-size="11" lengthAdjust="spacing" textLength="147" x="589" y="366.5165">+getOutrosRendimentos()</text><line style="stroke:#A80036;stroke-width:1.0;stroke-dasharray:1.0,2.0;" x1="584" x2="672" y1="349.8801" y2="349.8801"/><text fill="#000000" font-family="sans-serif" font-size="11" lengthAdjust="spacing" textLength="42" x="672" y="353.1936">Getters</text><line style="stroke:#A80036;stroke-width:1.0;stroke-dasharray:1.0,2.0;" x1="714" x2="802" y1="349.8801" y2="349.8801"/><text fill="#000000" font-family="sans-serif" font-size="11" lengthAdjust="spacing" textLength="146" x="589" y="396.1622">+setOutrosRendimentos()</text><text fill="#000000" font-family="sans-serif" font-size="11" lengthAdjust="spacing" textLength="208" x="589" y="408.9851">+static setTaxaOutrosRendimentos()</text><line style="stroke:#A80036;stroke-width:1.0;stroke-dasharray:1.0,2.0;" x1="584" x2="673" y1="379.5258" y2="379.5258"/><text fill="#000000" font-family="sans-serif" font-size="11" lengthAdjust="spacing" textLength="40" x="673" y="382.8393">Setters</text><line style="stroke:#A80036;stroke-width:1.0;stroke-dasharray:1.0,2.0;" x1="713" x2="802" y1="379.5258" y2="379.5258"/><!--MD5=[f30a455e284cff24563ab618219b29b5]
class ref--><rect codeLine="46" fill="#FEFECE" filter="url(#f13zu8bvkvtonf)" height="158.583" id="ref" style="stroke:#A80036;stroke-width:1.5;" width="242" x="7" y="514"/><ellipse cx="91.25" cy="530" fill="#ADD1B2" rx="11" ry="11" style="stroke:#A80036;stroke-width:1.0;"/><path d="M93.7344,535.875 Q93.1563,536.1875 92.5156,536.3438 Q91.875,536.5 91.1719,536.5 Q88.6563,536.5 87.3281,534.8281 Q86.0156,533.1563 86.0156,530 Q86.0156,526.8438 87.3281,525.1719 Q88.6563,523.5 91.1719,523.5 Q91.875,523.5 92.5156,523.6563 Q93.1719,523.8125 93.7344,524.125 L93.7344,526.9219 Q93.0938,526.3438 92.5,526.0781 Q91.9063,525.8125 91.2813,525.8125 Q89.9375,525.8125 89.25,526.875 Q88.5625,527.9219 88.5625,530 Q88.5625,532.0781 89.25,533.1406 Q89.9375,534.1875 91.2813,534.1875 Q91.9063,534.1875 92.5,533.9219 Q93.0938,533.6563 93.7344,533.0781 L93.7344,535.875 Z " fill="#000000"/><text fill="#000000" font-family="sans-serif" font-size="12" lengthAdjust="spacing" textLength="65" x="111.75" y="534.1543">Reformado</text><line style="stroke:#A80036;stroke-width:1.5;" x1="8" x2="248" y1="546" y2="546"/><text fill="#000000" font-family="sans-serif" font-size="11" lengthAdjust="spacing" textLength="230" x="13" y="560.225">-static Double taxaRendimentosTrabalho</text><text fill="#000000" font-family="sans-serif" font-size="11" lengthAdjust="spacing" textLength="218" x="13" y="573.0478">-static Double taxaOutrosRendimentos</text><line style="stroke:#A80036;stroke-width:1.5;" x1="8" x2="248" y1="579.6458" y2="579.6458"/><text fill="#000000" font-family="sans-serif" font-size="11" lengthAdjust="spacing" textLength="187" x="13" y="610.6936">+getTaxaRendimentosTrabalho()</text><text fill="#000000" font-family="sans-serif" font-size="11" lengthAdjust="spacing" textLength="175" x="13" y="623.5165">+getTaxaOutrosRendimentos()</text><line style="stroke:#A80036;stroke-width:1.0;stroke-dasharray:1.0,2.0;" x1="8" x2="107" y1="594.0572" y2="594.0572"/><text fill="#000000" font-family="sans-serif" font-size="11" lengthAdjust="spacing" textLength="42" x="107" y="597.3707">Getters</text><line style="stroke:#A80036;stroke-width:1.0;stroke-dasharray:1.0,2.0;" x1="149" x2="248" y1="594.0572" y2="594.0572"/><text fill="#000000" font-family="sans-serif" font-size="11" lengthAdjust="spacing" textLength="220" x="13" y="653.1622">+static setTaxaRendimentosTrabalho()</text><text fill="#000000" font-family="sans-serif" font-size="11" lengthAdjust="spacing" textLength="208" x="13" y="665.9851">+static setTaxaOutrosRendimentos()</text><line style="stroke:#A80036;stroke-width:1.0;stroke-dasharray:1.0,2.0;" x1="8" x2="108" y1="636.5258" y2="636.5258"/><text fill="#000000" font-family="sans-serif" font-size="11" lengthAdjust="spacing" textLength="40" x="108" y="639.8393">Setters</text><line style="stroke:#A80036;stroke-width:1.0;stroke-dasharray:1.0,2.0;" x1="148" x2="248" y1="636.5258" y2="636.5258"/><!--MD5=[3628ed0a67170ac83c1ce1b701c6f6be]
class tpo--><rect codeLine="58" fill="#FEFECE" filter="url(#f13zu8bvkvtonf)" height="197.0516" id="tpo" style="stroke:#A80036;stroke-width:1.5;" width="277" x="284.5" y="495"/><ellipse cx="359.75" cy="511" fill="#ADD1B2" rx="11" ry="11" style="stroke:#A80036;stroke-width:1.0;"/><path d="M362.2344,516.875 Q361.6563,517.1875 361.0156,517.3438 Q360.375,517.5 359.6719,517.5 Q357.1563,517.5 355.8281,515.8281 Q354.5156,514.1563 354.5156,511 Q354.5156,507.8438 355.8281,506.1719 Q357.1563,504.5 359.6719,504.5 Q360.375,504.5 361.0156,504.6563 Q361.6719,504.8125 362.2344,505.125 L362.2344,507.9219 Q361.5938,507.3438 361,507.0781 Q360.4063,506.8125 359.7813,506.8125 Q358.4375,506.8125 357.75,507.875 Q357.0625,508.9219 357.0625,511 Q357.0625,513.0781 357.75,514.1406 Q358.4375,515.1875 359.7813,515.1875 Q360.4063,515.1875 361,514.9219 Q361.5938,514.6563 362.2344,514.0781 L362.2344,516.875 Z " fill="#000000"/><text fill="#000000" font-family="sans-serif" font-size="12" lengthAdjust="spacing" textLength="118" x="380.25" y="515.1543">TrabalhadorOutrem</text><line style="stroke:#A80036;stroke-width:1.5;" x1="285.5" x2="560.5" y1="527" y2="527"/><text fill="#000000" font-family="sans-serif" font-size="11" lengthAdjust="spacing" textLength="123" x="290.5" y="541.225">-String nomeEmpresa</text><text fill="#000000" font-family="sans-serif" font-size="11" lengthAdjust="spacing" textLength="265" x="290.5" y="554.0478">-static Double taxaRendimentosTrabalhoNivel1</text><text fill="#000000" font-family="sans-serif" font-size="11" lengthAdjust="spacing" textLength="265" x="290.5" y="566.8707">-static Double taxaRendimentosTrabalhoNivel2</text><text fill="#000000" font-family="sans-serif" font-size="11" lengthAdjust="spacing" textLength="218" x="290.5" y="579.6936">-static Double taxaOutrosRendimentos</text><line style="stroke:#A80036;stroke-width:1.5;" x1="285.5" x2="560.5" y1="586.2915" y2="586.2915"/><text fill="#000000" font-family="sans-serif" font-size="11" lengthAdjust="spacing" textLength="187" x="290.5" y="617.3393">+getTaxaRendimentosTrabalho()</text><text fill="#000000" font-family="sans-serif" font-size="11" lengthAdjust="spacing" textLength="175" x="290.5" y="630.1622">+getTaxaOutrosRendimentos()</text><line style="stroke:#A80036;stroke-width:1.0;stroke-dasharray:1.0,2.0;" x1="285.5" x2="402" y1="600.7029" y2="600.7029"/><text fill="#000000" font-family="sans-serif" font-size="11" lengthAdjust="spacing" textLength="42" x="402" y="604.0165">Getters</text><line style="stroke:#A80036;stroke-width:1.0;stroke-dasharray:1.0,2.0;" x1="444" x2="560.5" y1="600.7029" y2="600.7029"/><text fill="#000000" font-family="sans-serif" font-size="11" lengthAdjust="spacing" textLength="255" x="290.5" y="659.808">+static setTaxaRendimentosTrabalhoNivel1()</text><text fill="#000000" font-family="sans-serif" font-size="11" lengthAdjust="spacing" textLength="255" x="290.5" y="672.6308">+static setTaxaRendimentosTrabalhoNivel2()</text><text fill="#000000" font-family="sans-serif" font-size="11" lengthAdjust="spacing" textLength="208" x="290.5" y="685.4537">+static setTaxaOutrosRendimentos()</text><line style="stroke:#A80036;stroke-width:1.0;stroke-dasharray:1.0,2.0;" x1="285.5" x2="403" y1="643.1716" y2="643.1716"/><text fill="#000000" font-family="sans-serif" font-size="11" lengthAdjust="spacing" textLength="40" x="403" y="646.4851">Setters</text><line style="stroke:#A80036;stroke-width:1.0;stroke-dasharray:1.0,2.0;" x1="443" x2="560.5" y1="643.1716" y2="643.1716"/><!--MD5=[817833f4abe8c4aa0f053b87fd3add06]
class tpc--><rect codeLine="73" fill="#FEFECE" filter="url(#f13zu8bvkvtonf)" height="197.0516" id="tpc" style="stroke:#A80036;stroke-width:1.5;" width="265" x="596.5" y="495"/><ellipse cx="667.75" cy="511" fill="#ADD1B2" rx="11" ry="11" style="stroke:#A80036;stroke-width:1.0;"/><path d="M670.2344,516.875 Q669.6563,517.1875 669.0156,517.3438 Q668.375,517.5 667.6719,517.5 Q665.1563,517.5 663.8281,515.8281 Q662.5156,514.1563 662.5156,511 Q662.5156,507.8438 663.8281,506.1719 Q665.1563,504.5 667.6719,504.5 Q668.375,504.5 669.0156,504.6563 Q669.6719,504.8125 670.2344,505.125 L670.2344,507.9219 Q669.5938,507.3438 669,507.0781 Q668.4063,506.8125 667.7813,506.8125 Q666.4375,506.8125 665.75,507.875 Q665.0625,508.9219 665.0625,511 Q665.0625,513.0781 665.75,514.1406 Q666.4375,515.1875 667.7813,515.1875 Q668.4063,515.1875 669,514.9219 Q669.5938,514.6563 670.2344,514.0781 L670.2344,516.875 Z " fill="#000000"/><text fill="#000000" font-family="sans-serif" font-size="12" lengthAdjust="spacing" textLength="114" x="688.25" y="515.1543">TrabalhadorPropria</text><line style="stroke:#A80036;stroke-width:1.5;" x1="597.5" x2="860.5" y1="527" y2="527"/><text fill="#000000" font-family="sans-serif" font-size="11" lengthAdjust="spacing" textLength="93" x="602.5" y="541.225">-String profissao</text><text fill="#000000" font-family="sans-serif" font-size="11" lengthAdjust="spacing" textLength="230" x="602.5" y="554.0478">-static Double taxaRendimentosTrabalho</text><text fill="#000000" font-family="sans-serif" font-size="11" lengthAdjust="spacing" textLength="253" x="602.5" y="566.8707">-static Double taxaOutrosRendimentosNivel1</text><text fill="#000000" font-family="sans-serif" font-size="11" lengthAdjust="spacing" textLength="253" x="602.5" y="579.6936">-static Double taxaOutrosRendimentosNivel2</text><line style="stroke:#A80036;stroke-width:1.5;" x1="597.5" x2="860.5" y1="586.2915" y2="586.2915"/><text fill="#000000" font-family="sans-serif" font-size="11" lengthAdjust="spacing" textLength="187" x="602.5" y="617.3393">+getTaxaRendimentosTrabalho()</text><text fill="#000000" font-family="sans-serif" font-size="11" lengthAdjust="spacing" textLength="175" x="602.5" y="630.1622">+getTaxaOutrosRendimentos()</text><line style="stroke:#A80036;stroke-width:1.0;stroke-dasharray:1.0,2.0;" x1="597.5" x2="708" y1="600.7029" y2="600.7029"/><text fill="#000000" font-family="sans-serif" font-size="11" lengthAdjust="spacing" textLength="42" x="708" y="604.0165">Getters</text><line style="stroke:#A80036;stroke-width:1.0;stroke-dasharray:1.0,2.0;" x1="750" x2="860.5" y1="600.7029" y2="600.7029"/><text fill="#000000" font-family="sans-serif" font-size="11" lengthAdjust="spacing" textLength="220" x="602.5" y="659.808">+static setTaxaRendimentosTrabalho()</text><text fill="#000000" font-family="sans-serif" font-size="11" lengthAdjust="spacing" textLength="243" x="602.5" y="672.6308">+static setTaxaOutrosRendimentosNivel1()</text><text fill="#000000" font-family="sans-serif" font-size="11" lengthAdjust="spacing" textLength="243" x="602.5" y="685.4537">+static setTaxaOutrosRendimentosNivel2()</text><line style="stroke:#A80036;stroke-width:1.0;stroke-dasharray:1.0,2.0;" x1="597.5" x2="709" y1="643.1716" y2="643.1716"/><text fill="#000000" font-family="sans-serif" font-size="11" lengthAdjust="spacing" textLength="40" x="709" y="646.4851">Setters</text><line style="stroke:#A80036;stroke-width:1.0;stroke-dasharray:1.0,2.0;" x1="749" x2="860.5" y1="643.1716" y2="643.1716"/><!--MD5=[490ad25ff238e6f61526c4d5ab1fcb63]
reverse link contrib to des--><path codeLine="90" d="M615.1,195.87 C626.51,216.32 638.33,237.5 649.2,256.99 " fill="none" id="contrib-backto-des" style="stroke:#A80036;stroke-width:1.0;"/><polygon fill="none" points="608.85,199.02,605.22,178.14,621.07,192.2,608.85,199.02" style="stroke:#A80036;stroke-width:1.0;"/><!--MD5=[42119b53bdb7771c77952f2fa72dffff]
reverse link contrib to contribRend--><path codeLine="91" d="M500.81,196.02 C493.11,209.81 485.24,223.93 477.59,237.64 " fill="none" id="contrib-backto-contribRend" style="stroke:#A80036;stroke-width:1.0;"/><polygon fill="none" points="494.93,192.2,510.78,178.14,507.15,199.02,494.93,192.2" style="stroke:#A80036;stroke-width:1.0;"/><!--MD5=[11c2d397ab181e9fb942672618bd54a8]
reverse link contribRend to ref--><path codeLine="92" d="M294.5,448.58 C269.05,470.57 242.84,493.23 218.95,513.88 " fill="none" id="contribRend-backto-ref" style="stroke:#A80036;stroke-width:1.0;"/><polygon fill="none" points="290.08,443.14,309.79,435.36,299.24,453.74,290.08,443.14" style="stroke:#A80036;stroke-width:1.0;"/><!--MD5=[643f4b19e6862807f67cddd895453d7f]
reverse link contribRend to tpo--><path codeLine="93" d="M423,455.76 C423,468.86 423,482.1 423,494.9 " fill="none" id="contribRend-backto-tpo" style="stroke:#A80036;stroke-width:1.0;"/><polygon fill="none" points="416,455.36,423,435.36,430,455.36,416,455.36" style="stroke:#A80036;stroke-width:1.0;"/><!--MD5=[fa60f6b0970db65c0fae266e65ffd8bf]
reverse link contribRend to tpc--><path codeLine="94" d="M555.95,448.29 C574.57,463.81 593.59,479.66 611.88,494.9 " fill="none" id="contribRend-backto-tpc" style="stroke:#A80036;stroke-width:1.0;"/><polygon fill="none" points="551.32,453.54,540.43,435.36,560.28,442.79,551.32,453.54" style="stroke:#A80036;stroke-width:1.0;"/><!--MD5=[2f5cc833fec910413623fd38d6171e3b]
@startuml
'Configurations'
skinparam ClassAttributeIconSize 0


'Classes declaration'
abstract class "Contribuinte" as contrib
{
    -String nome
    -String morada
    __
    +abstract calcularImposto()
    ..Getters..
    +getNome()
    +getMorada()
    ..Setters..
    +setNome()
    +setMorada()
}
abstract class "ContribuinteComRendimentos" as contribRend
{
    -Double rendimentosTrabalho
    -Double outrosRendimentos
    __
    +calcularImposto()
    ..Getters..
    +getRendimentosTrabalho()
    +getOutrosRendimentos()
    +abstract getTaxaRendimentosTrabalho()
    +abstract getTaxaOutrosRendimentos()
    ..Setters..
    +setRendimentosTrabalho()
    +setOutrosRendimentos()
}
class "Desempregado" as des
{
    -Double outrosRendimentos
    -Integer mesesParagem
    __
    +calcularImposto()
    ..Getters..
    +getOutrosRendimentos()
    ..Setters..
    +setOutrosRendimentos()
    +static setTaxaOutrosRendimentos()
}
class "Reformado" as ref
{
    -static Double taxaRendimentosTrabalho
    -static Double taxaOutrosRendimentos
    __
    ..Getters..
    +getTaxaRendimentosTrabalho()
    +getTaxaOutrosRendimentos()
    ..Setters..
    +static setTaxaRendimentosTrabalho()
    +static setTaxaOutrosRendimentos()
}
class "TrabalhadorOutrem" as tpo
{
    -String nomeEmpresa
    -static Double taxaRendimentosTrabalhoNivel1
    -static Double taxaRendimentosTrabalhoNivel2
    -static Double taxaOutrosRendimentos
    __
    ..Getters..
    +getTaxaRendimentosTrabalho()
    +getTaxaOutrosRendimentos()
    ..Setters..
    +static setTaxaRendimentosTrabalhoNivel1()
    +static setTaxaRendimentosTrabalhoNivel2()
    +static setTaxaOutrosRendimentos()
}
class "TrabalhadorPropria" as tpc
{
    -String profissao
    -static Double taxaRendimentosTrabalho
    -static Double taxaOutrosRendimentosNivel1
    -static Double taxaOutrosRendimentosNivel2
    __
    ..Getters..
    +getTaxaRendimentosTrabalho()
    +getTaxaOutrosRendimentos()
    ..Setters..
    +static setTaxaRendimentosTrabalho()
    +static setTaxaOutrosRendimentosNivel1()
    +static setTaxaOutrosRendimentosNivel2()
}

'Relations between classes'
contrib <|- - des
contrib <|- - contribRend
contribRend <|- - ref
contribRend <|- - tpo
contribRend <|- - tpc



@enduml

@startuml
skinparam ClassAttributeIconSize 0


abstract class "Contribuinte" as contrib
{
    -String nome
    -String morada
    __
    +abstract calcularImposto()
    ..Getters..
    +getNome()
    +getMorada()
    ..Setters..
    +setNome()
    +setMorada()
}
abstract class "ContribuinteComRendimentos" as contribRend
{
    -Double rendimentosTrabalho
    -Double outrosRendimentos
    __
    +calcularImposto()
    ..Getters..
    +getRendimentosTrabalho()
    +getOutrosRendimentos()
    +abstract getTaxaRendimentosTrabalho()
    +abstract getTaxaOutrosRendimentos()
    ..Setters..
    +setRendimentosTrabalho()
    +setOutrosRendimentos()
}
class "Desempregado" as des
{
    -Double outrosRendimentos
    -Integer mesesParagem
    __
    +calcularImposto()
    ..Getters..
    +getOutrosRendimentos()
    ..Setters..
    +setOutrosRendimentos()
    +static setTaxaOutrosRendimentos()
}
class "Reformado" as ref
{
    -static Double taxaRendimentosTrabalho
    -static Double taxaOutrosRendimentos
    __
    ..Getters..
    +getTaxaRendimentosTrabalho()
    +getTaxaOutrosRendimentos()
    ..Setters..
    +static setTaxaRendimentosTrabalho()
    +static setTaxaOutrosRendimentos()
}
class "TrabalhadorOutrem" as tpo
{
    -String nomeEmpresa
    -static Double taxaRendimentosTrabalhoNivel1
    -static Double taxaRendimentosTrabalhoNivel2
    -static Double taxaOutrosRendimentos
    __
    ..Getters..
    +getTaxaRendimentosTrabalho()
    +getTaxaOutrosRendimentos()
    ..Setters..
    +static setTaxaRendimentosTrabalhoNivel1()
    +static setTaxaRendimentosTrabalhoNivel2()
    +static setTaxaOutrosRendimentos()
}
class "TrabalhadorPropria" as tpc
{
    -String profissao
    -static Double taxaRendimentosTrabalho
    -static Double taxaOutrosRendimentosNivel1
    -static Double taxaOutrosRendimentosNivel2
    __
    ..Getters..
    +getTaxaRendimentosTrabalho()
    +getTaxaOutrosRendimentos()
    ..Setters..
    +static setTaxaRendimentosTrabalho()
    +static setTaxaOutrosRendimentosNivel1()
    +static setTaxaOutrosRendimentosNivel2()
}

contrib <|- - des
contrib <|- - contribRend
contribRend <|- - ref
contribRend <|- - tpo
contribRend <|- - tpc



@enduml

PlantUML version 1.2022.1(Tue Feb 01 18:19:58 WET 2022)
(GPL source distribution)
Java Runtime: OpenJDK Runtime Environment
JVM: OpenJDK 64-Bit Server VM
Default Encoding: UTF-8
Language: en
Country: GB
--></g></svg>